<svg width="218" height="165" viewBox="0 0 218 165" fill="none" xmlns="http://www.w3.org/2000/svg">
<circle cx="5" cy="129" r="5" transform="rotate(-90 5 129)" fill="#11453B"/>
<circle cx="5" cy="98" r="5" transform="rotate(-90 5 98)" fill="#11453B"/>
<circle cx="5" cy="67" r="5" transform="rotate(-90 5 67)" fill="#11453B"/>
<circle cx="31" cy="129" r="5" transform="rotate(-90 31 129)" fill="#11453B"/>
<circle cx="31" cy="98" r="5" transform="rotate(-90 31 98)" fill="#11453B"/>
<circle cx="31" cy="67" r="5" transform="rotate(-90 31 67)" fill="#11453B"/>
<circle cx="57" cy="129" r="5" transform="rotate(-90 57 129)" fill="#11453B"/>
<circle cx="57" cy="98" r="5" transform="rotate(-90 57 98)" fill="#11453B"/>
<circle cx="57" cy="67" r="5" transform="rotate(-90 57 67)" fill="#11453B"/>
<circle cx="83" cy="129" r="5" transform="rotate(-90 83 129)" fill="#11453B"/>
<circle cx="83" cy="98" r="5" transform="rotate(-90 83 98)" fill="#11453B"/>
<circle cx="83" cy="67" r="5" transform="rotate(-90 83 67)" fill="#11453B"/>
<circle cx="109" cy="129" r="5" transform="rotate(-90 109 129)" fill="#11453B"/>
<circle cx="109" cy="98" r="5" transform="rotate(-90 109 98)" fill="#11453B"/>
<circle cx="109" cy="67" r="5" transform="rotate(-90 109 67)" fill="#11453B"/>
<circle cx="135" cy="129" r="5" transform="rotate(-90 135 129)" fill="#11453B"/>
<circle cx="135" cy="98" r="5" transform="rotate(-90 135 98)" fill="#11453B"/>
<circle cx="135" cy="67" r="5" transform="rotate(-90 135 67)" fill="#11453B"/>
<circle cx="161" cy="129" r="5" transform="rotate(-90 161 129)" fill="#11453B"/>
<circle cx="161" cy="98" r="5" transform="rotate(-90 161 98)" fill="#11453B"/>
<circle cx="161" cy="67" r="5" transform="rotate(-90 161 67)" fill="#11453B"/>
<circle cx="187" cy="129" r="5" transform="rotate(-90 187 129)" fill="#11453B"/>
<circle cx="187" cy="98" r="5" transform="rotate(-90 187 98)" fill="#11453B"/>
<circle cx="187" cy="67" r="5" transform="rotate(-90 187 67)" fill="#11453B"/>
<circle cx="213" cy="129" r="5" transform="rotate(-90 213 129)" fill="#11453B"/>
<circle cx="213" cy="98" r="5" transform="rotate(-90 213 98)" fill="#11453B"/>
<circle cx="213" cy="67" r="5" transform="rotate(-90 213 67)" fill="#11453B"/>
</svg>
