<svg width="60" height="60" viewBox="0 0 60 60" fill="none" xmlns="http://www.w3.org/2000/svg">
<rect x="0.800049" width="58.4" height="60" rx="14.038" fill="#32A7E2" fill-opacity="0.1"/>
<g clip-path="url(#clip0_4_6502)">
<path d="M27.0055 24.6928L27.0056 24.6931C27.0924 24.8779 27.148 25.0105 27.1782 25.1162C27.2073 25.2185 27.2079 25.2798 27.198 25.326C27.1879 25.3727 27.1615 25.4302 27.0917 25.5152C27.02 25.6024 26.9145 25.7044 26.7608 25.8426C26.6147 25.9721 26.4698 26.1015 26.3254 26.2305C26.0376 26.4875 25.7513 26.7432 25.46 26.9959L25.4598 26.9961C25.3796 27.0657 25.3146 27.1536 25.2879 27.2679C25.2628 27.3759 25.279 27.4781 25.3016 27.5627L25.3015 27.5627L25.3035 27.5694C25.9095 29.6124 27.0581 31.297 28.6694 32.6611L28.6699 32.6615C29.7726 33.5903 31.0134 34.2993 32.4283 34.6911L32.4285 34.6911C32.5092 34.7134 32.6094 34.7314 32.7169 34.7087C32.8309 34.6847 32.9205 34.6221 32.9932 34.5426L32.9932 34.5426L32.9966 34.5388C33.137 34.3785 33.2826 34.2165 33.4292 34.0531C33.638 33.8207 33.8491 33.5857 34.0508 33.3499C34.2149 33.16 34.3346 33.0284 34.4372 32.9382C34.5377 32.8498 34.6048 32.8167 34.6597 32.8044C34.7138 32.7924 34.786 32.7939 34.9094 32.8319C35.0362 32.871 35.1955 32.9416 35.4188 33.0493C36.7732 33.7044 38.0461 34.5024 39.2694 35.3831C39.3584 35.4472 39.44 35.5301 39.5283 35.6307C39.5566 35.663 39.5879 35.6999 39.6209 35.7388C39.6601 35.785 39.7016 35.834 39.7433 35.8813V35.8815V35.8821V35.8826V35.8831V35.8836V35.8842V35.8847V35.8852V35.8857V35.8863V35.8868V35.8873V35.8878V35.8884V35.8889V35.8894V35.8899V35.8905V35.891V35.8915V35.892V35.8926V35.8931V35.8936V35.8941V35.8947V35.8952V35.8957V35.8962V35.8968V35.8973V35.8978V35.8983V35.8989V35.8994V35.8999V35.9004V35.901V35.9015V35.902V35.9025V35.9031V35.9036V35.9041V35.9046V35.9052V35.9057V35.9062V35.9067V35.9073V35.9078V35.9083V35.9088V35.9094V35.9099V35.9104V35.9109V35.9115V35.912V35.9125V35.913V35.9136V35.9141V35.9146V35.9151V35.9157V35.9162V35.9167V35.9172V35.9178V35.9183V35.9188V35.9193V35.9199V35.9204V35.9209V35.9214V35.922V35.9225V35.923V35.9235V35.9241V35.9246V35.9251V35.9256V35.9262V35.9267V35.9272V35.9277V35.9283V35.9288V35.9293V35.9298V35.9304V35.9309V35.9314V35.9319V35.9325V35.933V35.9335V35.934V35.9346V35.9351V35.9356V35.9361V35.9367V35.9372V35.9377V35.9382V35.9388V35.9393V35.9398V35.9403V35.9409V35.9414V35.9419V35.9424V35.943V35.9435V35.944V35.9445V35.9451V35.9456V35.9461V35.9466V35.9472V35.9477V35.9482V35.9487V35.9493V35.9498V35.9503V35.9508V35.9514V35.9519V35.9524V35.9529V35.9535V35.954V35.9545V35.955V35.9556V35.9561V35.9566V35.9571V35.9577V35.9582V35.9587V35.9592V35.9598V35.9603V35.9608V35.9613V35.9619V35.9624V35.9629V35.9634V35.964V35.9645V35.965V35.9655V35.9661V35.9666V35.9671V35.9676V35.9682V35.9687V35.9692V35.9697V35.9703V35.9708V35.9713V35.9718V35.9724V35.9729V35.9733C39.7027 36.0307 39.6651 36.0857 39.6289 36.1387C39.5319 36.2806 39.4447 36.4081 39.3342 36.5299C38.2756 37.6766 37.064 38.6546 35.7748 39.5481L35.774 39.5487C35.4703 39.7609 35.1667 39.7989 34.7852 39.7274L34.7835 39.7271C33.4467 39.486 32.1866 39.0167 30.9937 38.3653C27.3198 36.3488 24.4078 33.5262 22.1943 29.9774L22.1942 29.9773C21.3203 28.5781 20.6697 27.0863 20.3183 25.4656C20.1938 24.8888 20.2377 24.4394 20.593 24.0123C20.9102 23.6329 21.2169 23.2447 21.5212 22.8596C21.5374 22.8392 21.5535 22.8187 21.5697 22.7983C21.8906 22.3922 22.2094 21.9901 22.54 21.5997C22.9873 21.0749 23.4461 20.593 24.0167 20.25H24.0168H24.0173H24.0178H24.0184H24.0189H24.0194H24.0199H24.0205H24.021H24.0215H24.022H24.0226H24.0231H24.0236H24.0241H24.0247H24.0252H24.0257H24.0262H24.0268H24.0273H24.0278H24.0283H24.0289H24.0294H24.0299H24.0304H24.031H24.0315H24.032H24.0325H24.0331H24.0336H24.0341H24.0346H24.0352H24.0357H24.0362H24.0367H24.0373H24.0378H24.0383H24.0388H24.0394H24.0399H24.0404H24.0409H24.0415H24.042H24.0425H24.043H24.0436H24.0441H24.0446H24.0451H24.0457H24.0462H24.0467H24.0472H24.0478H24.0483H24.0488H24.0493H24.0499H24.0504H24.0509H24.0514H24.052H24.0525H24.053H24.0535H24.0541H24.0546H24.0551H24.0556H24.0562H24.0567H24.0572H24.0577H24.0583H24.0588H24.0593H24.0598H24.0604H24.0609H24.0614H24.0619H24.0624H24.063H24.0635H24.064H24.0645H24.0651H24.0656H24.0661H24.0666H24.0672H24.0677H24.0682H24.0687H24.0693H24.0698H24.0703H24.0708H24.0714H24.0719H24.0724H24.0729H24.0735H24.074H24.0745H24.075H24.0756H24.0761H24.0766H24.0771H24.0777H24.0782H24.0787H24.0792H24.0798H24.0803H24.0808H24.0813H24.0819H24.0824H24.0829H24.0834H24.084H24.0845H24.085H24.0855H24.0861H24.0866H24.0871H24.0876H24.0882H24.0887H24.0892H24.0897H24.0903H24.0908H24.0913H24.0918H24.0924H24.0929H24.0934H24.0939H24.0945H24.095H24.0955H24.096H24.0966H24.0971H24.0976H24.0981H24.0987H24.0992H24.0997H24.1002H24.1008H24.1013H24.1018H24.1023H24.1029H24.1034H24.1039H24.1044H24.105H24.1055H24.106H24.1065H24.1071H24.1076H24.1081H24.1086H24.1092H24.1097H24.1102H24.1107H24.1113H24.1118H24.1123H24.1128H24.1134H24.1139H24.1144C24.1755 20.3093 24.239 20.3681 24.2997 20.4243C24.3426 20.464 24.3841 20.5025 24.4224 20.5389C24.5442 20.6547 24.65 20.7646 24.7343 20.8833C25.5896 22.0995 26.378 23.3539 27.0055 24.6928Z" fill="#32A7E2" stroke="#E4F0F6" stroke-width="0.5"/>
<path d="M39.9933 29.2945C39.5275 29.2945 39.0572 29.2945 38.5689 29.2945C38.5196 27.1355 37.7806 25.2721 36.2576 23.7446C34.7346 22.2172 32.8757 21.4692 30.6943 21.4199C30.6943 20.9451 30.6943 20.4703 30.6943 19.9955C30.9049 19.9955 31.1109 19.9955 31.3214 19.9955C31.7873 20.0716 32.2621 20.1254 32.7235 20.2239C36.2934 20.9899 39.1691 23.9641 39.8186 27.5476C39.8858 27.9193 39.9351 28.2911 39.9888 28.6674C39.9933 28.8779 39.9933 29.0884 39.9933 29.2945Z" fill="#32A7E2"/>
<path d="M36.4099 29.2855C35.9351 29.2855 35.4782 29.2855 34.9944 29.2855C34.9586 28.1164 34.5555 27.0952 33.7223 26.262C32.8937 25.4378 31.8813 25.0302 30.7078 24.9989C30.7078 24.524 30.7078 24.0672 30.7078 23.6058C33.3237 23.449 36.4054 25.7648 36.4099 29.2855Z" fill="#32A7E2"/>
</g>
<defs>
<clipPath id="clip0_4_6502">
<rect width="19.9866" height="20" fill="white" transform="translate(20.0067 20)"/>
</clipPath>
</defs>
</svg>
