<svg width="61" height="61" viewBox="0 0 61 61" fill="none" xmlns="http://www.w3.org/2000/svg">
<rect x="0.957031" y="0.243164" width="60" height="60" rx="12" fill="#E7FBEF"/>
<path d="M20.9989 28.3155C21.0224 28.2372 21.0459 28.155 21.0694 28.0767C21.2455 27.4465 21.633 26.9964 22.2358 26.7458C27.5633 24.5499 32.8947 22.3539 38.2222 20.1579C38.9933 19.8409 39.8427 20.0092 40.422 20.5885C40.9974 21.1639 41.1579 22.0016 40.8409 22.7727C38.6449 28.108 36.4489 33.4472 34.253 38.7825C33.9985 39.4049 33.5327 39.7846 32.8869 39.9569C32.8438 39.9686 32.8047 39.9843 32.7616 39.9999C32.5385 39.9999 32.3193 39.9999 32.0962 39.9999C32.0022 39.9725 31.9122 39.949 31.8182 39.9216C31.2624 39.7455 30.8318 39.4128 30.6048 38.8726C30.0646 37.5926 29.5362 36.3047 29.0077 35.0169C28.8198 34.555 29.0547 34.1166 29.5244 34.0461C29.8336 33.9992 30.1194 34.1714 30.2564 34.5041C30.6244 35.3927 30.9923 36.2813 31.3603 37.1698C31.509 37.5299 31.6577 37.8901 31.8104 38.2502C31.9239 38.5242 32.1392 38.6729 32.4093 38.669C32.7029 38.6612 32.9182 38.5281 33.0317 38.2502C35.2237 32.9188 37.4158 27.5874 39.6078 22.256C39.7214 21.986 39.69 21.7433 39.4865 21.5397C39.2595 21.3088 38.9933 21.2853 38.6958 21.4066C36.7973 22.1934 34.8988 22.9724 33.0004 23.7552C29.591 25.1566 26.1854 26.5619 22.776 27.9632C22.4942 28.0806 22.3298 28.3194 22.3298 28.613C22.3298 28.887 22.4824 29.0905 22.776 29.2119C24.6354 29.9752 26.4908 30.7385 28.3462 31.5057C28.4714 31.5566 28.538 31.5409 28.628 31.447C29.5753 30.488 30.5265 29.5329 31.4816 28.5817C31.8691 28.1942 32.4719 28.3351 32.6207 28.84C32.6911 29.0866 32.6363 29.3097 32.4602 29.4898C31.3563 30.5976 30.2525 31.7014 29.1447 32.8053C28.9177 33.0284 28.6398 33.0754 28.3501 32.954C26.2716 32.0929 24.1891 31.2395 22.1184 30.3666C21.5234 30.1161 21.1868 29.6151 21.042 28.9888C21.0302 28.9457 21.0146 28.9066 20.9989 28.8635C20.9989 28.6795 20.9989 28.4995 20.9989 28.3155Z" fill="#219653" stroke="#219653" stroke-width="0.490446"/>
</svg>
