<svg width="14" height="14" viewBox="0 0 14 14" fill="none" xmlns="http://www.w3.org/2000/svg">
<path d="M12.3333 4.45333V0.999995C12.3333 0.823184 12.2631 0.653615 12.1381 0.52859C12.013 0.403566 11.8435 0.333328 11.6667 0.333328C11.4898 0.333328 11.3203 0.403566 11.1952 0.52859C11.0702 0.653615 11 0.823184 11 0.999995V4.45333C10.6139 4.59346 10.2803 4.84908 10.0445 5.18544C9.8088 5.5218 9.68233 5.92258 9.68233 6.33333C9.68233 6.74407 9.8088 7.14486 10.0445 7.48122C10.2803 7.81758 10.6139 8.07319 11 8.21333V13C11 13.1768 11.0702 13.3464 11.1952 13.4714C11.3203 13.5964 11.4898 13.6667 11.6667 13.6667C11.8435 13.6667 12.013 13.5964 12.1381 13.4714C12.2631 13.3464 12.3333 13.1768 12.3333 13V8.21333C12.7194 8.07319 13.053 7.81758 13.2888 7.48122C13.5245 7.14486 13.651 6.74407 13.651 6.33333C13.651 5.92258 13.5245 5.5218 13.2888 5.18544C13.053 4.84908 12.7194 4.59346 12.3333 4.45333ZM11.6667 7C11.5348 7 11.4059 6.9609 11.2963 6.88764C11.1866 6.81439 11.1012 6.71027 11.0507 6.58845C11.0003 6.46663 10.9871 6.33259 11.0128 6.20327C11.0385 6.07395 11.102 5.95516 11.1952 5.86192C11.2885 5.76869 11.4073 5.70519 11.5366 5.67947C11.6659 5.65375 11.8 5.66695 11.9218 5.71741C12.0436 5.76787 12.1477 5.85332 12.221 5.96295C12.2942 6.07258 12.3333 6.20147 12.3333 6.33333C12.3333 6.51014 12.2631 6.67971 12.1381 6.80473C12.013 6.92976 11.8435 7 11.6667 7ZM7.66665 8.45333V0.999995C7.66665 0.823184 7.59641 0.653615 7.47139 0.52859C7.34636 0.403566 7.17679 0.333328 6.99998 0.333328C6.82317 0.333328 6.6536 0.403566 6.52858 0.52859C6.40355 0.653615 6.33332 0.823184 6.33332 0.999995V8.45333C5.94722 8.59346 5.61362 8.84908 5.37788 9.18544C5.14213 9.5218 5.01567 9.92258 5.01567 10.3333C5.01567 10.7441 5.14213 11.1449 5.37788 11.4812C5.61362 11.8176 5.94722 12.0732 6.33332 12.2133V13C6.33332 13.1768 6.40355 13.3464 6.52858 13.4714C6.6536 13.5964 6.82317 13.6667 6.99998 13.6667C7.17679 13.6667 7.34636 13.5964 7.47139 13.4714C7.59641 13.3464 7.66665 13.1768 7.66665 13V12.2133C8.05275 12.0732 8.38634 11.8176 8.62209 11.4812C8.85783 11.1449 8.9843 10.7441 8.9843 10.3333C8.9843 9.92258 8.85783 9.5218 8.62209 9.18544C8.38634 8.84908 8.05275 8.59346 7.66665 8.45333ZM6.99998 11C6.86813 11 6.73924 10.9609 6.6296 10.8876C6.51997 10.8144 6.43452 10.7103 6.38406 10.5885C6.33361 10.4666 6.3204 10.3326 6.34613 10.2033C6.37185 10.0739 6.43534 9.95516 6.52858 9.86192C6.62181 9.76869 6.7406 9.7052 6.86992 9.67947C6.99924 9.65375 7.13329 9.66695 7.25511 9.71741C7.37692 9.76787 7.48104 9.85332 7.5543 9.96295C7.62755 10.0726 7.66665 10.2015 7.66665 10.3333C7.66665 10.5101 7.59641 10.6797 7.47139 10.8047C7.34636 10.9298 7.17679 11 6.99998 11ZM2.99998 3.11999V0.999995C2.99998 0.823184 2.92975 0.653615 2.80472 0.52859C2.6797 0.403566 2.51013 0.333328 2.33332 0.333328C2.15651 0.333328 1.98694 0.403566 1.86191 0.52859C1.73689 0.653615 1.66665 0.823184 1.66665 0.999995V3.11999C1.28055 3.26013 0.946957 3.51575 0.711211 3.85211C0.475465 4.18846 0.348999 4.58925 0.348999 5C0.348999 5.41074 0.475465 5.81153 0.711211 6.14789C0.946957 6.48424 1.28055 6.73986 1.66665 6.87999V13C1.66665 13.1768 1.73689 13.3464 1.86191 13.4714C1.98694 13.5964 2.15651 13.6667 2.33332 13.6667C2.51013 13.6667 2.6797 13.5964 2.80472 13.4714C2.92975 13.3464 2.99998 13.1768 2.99998 13V6.87999C3.38609 6.73986 3.71968 6.48424 3.95542 6.14789C4.19117 5.81153 4.31763 5.41074 4.31763 5C4.31763 4.58925 4.19117 4.18846 3.95542 3.85211C3.71968 3.51575 3.38609 3.26013 2.99998 3.11999ZM2.33332 5.66666C2.20146 5.66666 2.07257 5.62756 1.96294 5.55431C1.8533 5.48105 1.76786 5.37694 1.7174 5.25512C1.66694 5.1333 1.65374 4.99926 1.67946 4.86994C1.70518 4.74061 1.76868 4.62183 1.86191 4.52859C1.95515 4.43536 2.07394 4.37186 2.20326 4.34614C2.33258 4.32041 2.46662 4.33362 2.58844 4.38408C2.71026 4.43453 2.81438 4.51998 2.88763 4.62961C2.96088 4.73925 2.99998 4.86814 2.99998 5C2.99998 5.17681 2.92975 5.34637 2.80472 5.4714C2.6797 5.59642 2.51013 5.66666 2.33332 5.66666Z" fill="#8D8E8D"/>
</svg>
