<svg width="21" height="20" viewBox="0 0 21 20" fill="none" xmlns="http://www.w3.org/2000/svg">
<path d="M18.0196 1.71667C17.4223 1.61378 16.8174 1.56082 16.2113 1.55833C14.1432 1.55664 12.1183 2.14965 10.3779 3.26667C8.63305 2.16431 6.60847 1.58586 4.5446 1.6C3.93847 1.60248 3.3336 1.65545 2.73626 1.75833C2.5406 1.79207 2.36341 1.89455 2.23661 2.04733C2.1098 2.20011 2.04171 2.39314 2.0446 2.59167V12.5917C2.04281 12.7141 2.06803 12.8354 2.11847 12.947C2.16891 13.0586 2.24332 13.1577 2.33641 13.2373C2.4295 13.3169 2.53898 13.3749 2.65706 13.4074C2.77514 13.4398 2.89892 13.4458 3.0196 13.425C4.21378 13.2182 5.43726 13.2525 6.61798 13.5259C7.7987 13.7993 8.91278 14.3061 9.8946 15.0167L9.9946 15.075H10.0863C10.1787 15.1135 10.2778 15.1333 10.3779 15.1333C10.478 15.1333 10.5772 15.1135 10.6696 15.075H10.7613L10.8613 15.0167C11.8362 14.2902 12.9471 13.7669 14.1281 13.4778C15.309 13.1886 16.536 13.1395 17.7363 13.3333C17.8569 13.3542 17.9807 13.3481 18.0988 13.3157C18.2169 13.2833 18.3264 13.2252 18.4195 13.1456C18.5125 13.0661 18.587 12.967 18.6374 12.8554C18.6878 12.7438 18.713 12.6224 18.7113 12.5V2.5C18.7026 2.31013 18.6293 2.12893 18.5035 1.98645C18.3777 1.84397 18.2069 1.74878 18.0196 1.71667ZM9.5446 12.7917C8.00283 11.9806 6.28669 11.5573 4.5446 11.5583C4.2696 11.5583 3.9946 11.5583 3.71126 11.5583V3.225C3.98881 3.209 4.26705 3.209 4.5446 3.225C6.32242 3.22304 8.06144 3.74474 9.5446 4.725V12.7917ZM17.0446 11.5917C16.7613 11.5917 16.4863 11.5917 16.2113 11.5917C14.4692 11.5906 12.753 12.0139 11.2113 12.825V4.725C12.6944 3.74474 14.4334 3.22304 16.2113 3.225C16.4888 3.209 16.767 3.209 17.0446 3.225V11.5917ZM18.0196 15.05C17.4223 14.9471 16.8174 14.8942 16.2113 14.8917C14.1432 14.89 12.1183 15.483 10.3779 16.6C8.63752 15.483 6.61262 14.89 4.5446 14.8917C3.93847 14.8942 3.3336 14.9471 2.73626 15.05C2.62779 15.0672 2.52378 15.1057 2.43023 15.1633C2.33668 15.2208 2.25543 15.2963 2.19115 15.3853C2.12687 15.4744 2.08083 15.5753 2.05568 15.6822C2.03053 15.7891 2.02676 15.9 2.0446 16.0083C2.08694 16.2247 2.21334 16.4155 2.39609 16.5389C2.57884 16.6623 2.80305 16.7083 3.0196 16.6667C4.21378 16.4599 5.43726 16.4942 6.61798 16.7676C7.7987 17.0409 8.91278 17.5478 9.8946 18.2583C10.0357 18.3588 10.2047 18.4128 10.3779 18.4128C10.5512 18.4128 10.7201 18.3588 10.8613 18.2583C11.8431 17.5478 12.9572 17.0409 14.1379 16.7676C15.3186 16.4942 16.5421 16.4599 17.7363 16.6667C17.9528 16.7083 18.177 16.6623 18.3598 16.5389C18.5425 16.4155 18.6689 16.2247 18.7113 16.0083C18.7291 15.9 18.7253 15.7891 18.7002 15.6822C18.675 15.5753 18.629 15.4744 18.5647 15.3853C18.5004 15.2963 18.4192 15.2208 18.3256 15.1633C18.2321 15.1057 18.1281 15.0672 18.0196 15.05V15.05Z" fill="#515251"/>
</svg>
