<svg width="17" height="18" viewBox="0 0 17 18" fill="none" xmlns="http://www.w3.org/2000/svg">
<path d="M6.08626 17.3334L5.75293 14.6667C5.57237 14.5972 5.4021 14.5139 5.2421 14.4167C5.0821 14.3195 4.92599 14.2153 4.77376 14.1042L2.2946 15.1459L0.00292969 11.1875L2.14876 9.56252C2.13487 9.4653 2.12793 9.37141 2.12793 9.28085V8.71919C2.12793 8.62863 2.13487 8.53474 2.14876 8.43752L0.00292969 6.81252L2.2946 2.85419L4.77376 3.89585C4.92654 3.78474 5.08626 3.68058 5.25293 3.58335C5.4196 3.48613 5.58626 3.4028 5.75293 3.33335L6.08626 0.666687H10.6696L11.0029 3.33335C11.1835 3.4028 11.3538 3.48613 11.5138 3.58335C11.6738 3.68058 11.8299 3.78474 11.9821 3.89585L14.4613 2.85419L16.7529 6.81252L14.6071 8.43752C14.621 8.53474 14.6279 8.62863 14.6279 8.71919V9.28085C14.6279 9.37141 14.614 9.4653 14.5863 9.56252L16.7321 11.1875L14.4404 15.1459L11.9821 14.1042C11.8293 14.2153 11.6696 14.3195 11.5029 14.4167C11.3363 14.5139 11.1696 14.5972 11.0029 14.6667L10.6696 17.3334H6.08626ZM8.4196 11.9167C9.22515 11.9167 9.91265 11.632 10.4821 11.0625C11.0515 10.4931 11.3363 9.80558 11.3363 9.00002C11.3363 8.19446 11.0515 7.50696 10.4821 6.93752C9.91265 6.36808 9.22515 6.08335 8.4196 6.08335C7.60015 6.08335 6.90904 6.36808 6.34626 6.93752C5.78349 7.50696 5.50237 8.19446 5.50293 9.00002C5.50293 9.80558 5.78404 10.4931 6.34626 11.0625C6.90849 11.632 7.5996 11.9167 8.4196 11.9167ZM8.4196 10.25C8.07237 10.25 7.7771 10.1284 7.53376 9.88502C7.29043 9.64169 7.16904 9.34669 7.1696 9.00002C7.1696 8.6528 7.29126 8.35752 7.5346 8.11419C7.77793 7.87085 8.07293 7.74946 8.4196 7.75002C8.76682 7.75002 9.0621 7.87169 9.30543 8.11502C9.54876 8.35835 9.67015 8.65335 9.6696 9.00002C9.6696 9.34724 9.54793 9.64252 9.3046 9.88585C9.06126 10.1292 8.76626 10.2506 8.4196 10.25ZM7.5446 15.6667H9.19043L9.4821 13.4584C9.91265 13.3472 10.3121 13.1839 10.6804 12.9684C11.0488 12.7528 11.3854 12.4925 11.6904 12.1875L13.7529 13.0417L14.5654 11.625L12.7738 10.2709C12.8432 10.0764 12.8918 9.87169 12.9196 9.65669C12.9474 9.44169 12.9613 9.2228 12.9613 9.00002C12.9613 8.7778 12.9474 8.55919 12.9196 8.34419C12.8918 8.12919 12.8432 7.92419 12.7738 7.72919L14.5654 6.37502L13.7529 4.95835L11.6904 5.83335C11.3849 5.51391 11.0482 5.24669 10.6804 5.03169C10.3127 4.81669 9.91321 4.65335 9.4821 4.54169L9.21126 2.33335H7.56543L7.27376 4.54169C6.84321 4.6528 6.44404 4.81613 6.07626 5.03169C5.70849 5.24724 5.37154 5.50752 5.06543 5.81252L3.00293 4.95835L2.19043 6.37502L3.9821 7.70835C3.91265 7.91669 3.86404 8.12502 3.83626 8.33335C3.80849 8.54169 3.7946 8.76391 3.7946 9.00002C3.7946 9.22224 3.80849 9.43752 3.83626 9.64585C3.86404 9.85419 3.91265 10.0625 3.9821 10.2709L2.19043 11.625L3.00293 13.0417L5.06543 12.1667C5.37098 12.4861 5.70793 12.7536 6.07626 12.9692C6.4446 13.1847 6.84376 13.3478 7.27376 13.4584L7.5446 15.6667Z" fill="#515251"/>
</svg>
