<svg width="21" height="20" viewBox="0 0 21 20" fill="none" xmlns="http://www.w3.org/2000/svg">
<path d="M16.5779 10.8334C16.3946 10.8334 16.2029 10.775 16.0196 10.7334C15.6483 10.6516 15.2835 10.5429 14.9279 10.4084C14.5413 10.2677 14.1164 10.275 13.7349 10.4289C13.3533 10.5827 13.0422 10.8722 12.8613 11.2417L12.6779 11.6167C11.8663 11.1652 11.1204 10.6044 10.4613 9.95003C9.8069 9.29088 9.24612 8.54503 8.7946 7.73336L9.1446 7.50003C9.51407 7.31913 9.80358 7.00797 9.95742 6.62644C10.1113 6.24491 10.1186 5.81996 9.97793 5.43336C9.84562 5.07705 9.73704 4.71236 9.65293 4.3417C9.61126 4.15836 9.57793 3.9667 9.55293 3.77503C9.45173 3.18805 9.14428 2.65648 8.68595 2.27606C8.22761 1.89564 7.64851 1.69137 7.05293 1.70003H4.55293C4.19379 1.69666 3.83814 1.77071 3.51019 1.91714C3.18224 2.06357 2.88969 2.27894 2.65246 2.5486C2.41522 2.81825 2.23888 3.13586 2.13542 3.47979C2.03196 3.82372 2.00383 4.18591 2.05293 4.5417C2.49688 8.03285 4.09129 11.2766 6.58431 13.7606C9.07733 16.2445 12.3269 17.8271 15.8196 18.2584H16.1363C16.7508 18.2593 17.3441 18.0338 17.8029 17.625C18.0666 17.3892 18.2772 17.1002 18.4208 16.777C18.5645 16.4537 18.6379 16.1037 18.6363 15.75V13.25C18.6261 12.6712 18.4153 12.1138 18.0399 11.6731C17.6645 11.2323 17.1478 10.9356 16.5779 10.8334V10.8334ZM16.9946 15.8334C16.9944 15.9517 16.9691 16.0686 16.9202 16.1764C16.8714 16.2841 16.8002 16.3803 16.7113 16.4584C16.6181 16.5388 16.5093 16.5988 16.3916 16.6347C16.2739 16.6706 16.1501 16.6815 16.0279 16.6667C12.907 16.2665 10.0081 14.8388 7.78853 12.6086C5.56893 10.3784 4.15494 7.47281 3.7696 4.35003C3.75633 4.22796 3.76796 4.10447 3.80376 3.98702C3.83957 3.86957 3.89882 3.7606 3.97793 3.6667C4.05602 3.57781 4.15215 3.50656 4.25991 3.45771C4.36768 3.40886 4.48461 3.38351 4.60293 3.38336H7.10293C7.29672 3.37905 7.48595 3.44243 7.63805 3.56259C7.79015 3.68275 7.8956 3.85217 7.93626 4.0417C7.9696 4.26947 8.01126 4.49447 8.06126 4.7167C8.15753 5.15598 8.28565 5.58768 8.4446 6.00836L7.27793 6.55003C7.17818 6.5958 7.08845 6.66082 7.01389 6.74136C6.93934 6.8219 6.88143 6.91637 6.84349 7.01936C6.80555 7.12234 6.78832 7.2318 6.7928 7.34146C6.79728 7.45112 6.82338 7.55882 6.8696 7.65836C8.06893 10.2273 10.134 12.2924 12.7029 13.4917C12.9058 13.575 13.1334 13.575 13.3363 13.4917C13.4402 13.4545 13.5357 13.3971 13.6172 13.3227C13.6988 13.2483 13.7647 13.1585 13.8113 13.0584L14.3279 11.8917C14.7587 12.0458 15.1984 12.1738 15.6446 12.275C15.8668 12.325 16.0918 12.3667 16.3196 12.4C16.5091 12.4407 16.6785 12.5461 16.7987 12.6982C16.9189 12.8503 16.9822 13.0396 16.9779 13.2334L16.9946 15.8334Z" fill="#515251"/>
</svg>
