<svg width="21" height="22" viewBox="0 0 21 22" fill="none" xmlns="http://www.w3.org/2000/svg">
<g clip-path="url(#clip0_5_242)">
<path d="M12.2494 0.338623C12.675 0.422078 13.1089 0.476324 13.5262 0.597334C16.009 1.29836 17.8659 3.49322 18.1705 6.05529C18.5627 9.3768 16.493 12.4146 13.2884 13.2199C9.6998 14.1212 6.01944 11.7344 5.37683 8.08742C4.81768 4.93282 6.46592 1.93679 9.4244 0.785107C9.95434 0.580643 10.5344 0.509706 11.0935 0.376178C11.1477 0.36366 11.202 0.351141 11.2521 0.338623C11.5817 0.338623 11.9155 0.338623 12.2494 0.338623ZM16.9729 6.86898C16.9646 3.93971 14.6153 1.57793 11.7194 1.59045C8.84021 1.59879 6.4993 3.98561 6.50765 6.89402C6.51599 9.80242 8.87777 12.1725 11.757 12.1642C14.632 12.1559 16.9813 9.77321 16.9729 6.86898Z" fill="#515251"/>
<path d="M2.99422 15.5273C3.03595 15.3562 3.06099 15.2059 3.11106 15.0641C3.39898 14.2504 4.01237 13.8498 4.83023 13.6662C6.22393 13.3532 7.55087 13.4951 8.8319 14.1502C9.2909 14.3839 9.77494 14.5884 10.2673 14.7553C10.5636 14.8554 10.8891 14.893 11.2062 14.9055C11.8363 14.9264 12.4705 14.9097 13.1006 14.9139C13.5596 14.9139 13.8058 15.1684 13.7933 15.6274C13.7766 16.2491 13.5805 16.8083 13.2049 17.3549C13.5137 17.3549 13.7933 17.3633 14.0687 17.3507C14.123 17.3466 14.1772 17.2715 14.2273 17.2214C14.8115 16.6372 15.3915 16.0488 15.9798 15.473C17.119 14.3589 18.9091 14.3255 20.0942 15.3896C20.4697 15.7275 20.4822 16.0906 20.1275 16.4453C18.6671 17.9099 17.2024 19.3704 15.742 20.8308C15.1787 21.3941 14.4985 21.6695 13.7057 21.6695C9.50789 21.6695 5.3101 21.6695 1.11231 21.6695C0.615754 21.6612 0.377907 21.4233 0.377907 20.931C0.377907 19.3704 0.377907 17.8097 0.377907 16.245C0.377907 15.7568 0.611581 15.5273 1.10814 15.5273C1.72988 15.5231 2.35579 15.5273 2.99422 15.5273ZM4.25439 20.4135C4.35454 20.4135 4.42965 20.4135 4.50476 20.4135C7.54252 20.4135 10.5845 20.4094 13.6222 20.4177C14.1313 20.4177 14.5486 20.2508 14.9074 19.8878C16.1509 18.636 17.3986 17.3925 18.6462 16.1448C18.6879 16.1031 18.7213 16.0572 18.7714 16.0029C18.7213 15.9821 18.6921 15.9612 18.6587 15.9529C17.9535 15.7317 17.3318 15.8778 16.8019 16.3994C16.1718 17.0253 15.5375 17.647 14.9199 18.2854C14.6988 18.5108 14.4609 18.6109 14.148 18.6067C12.1993 18.5984 10.2465 18.5984 8.29779 18.5984C8.03908 18.5984 7.78454 18.6026 7.52583 18.59C7.28381 18.5775 7.10856 18.444 7.00841 18.227C6.91244 18.0142 6.9333 17.8056 7.071 17.6136C7.21705 17.405 7.42986 17.3424 7.67188 17.3424C8.59406 17.3466 9.51623 17.3466 10.4426 17.3466C10.622 17.3466 10.8056 17.3466 10.9809 17.3299C11.6193 17.2589 12.2494 16.7415 12.4079 16.1532C12.0282 16.1532 11.6569 16.149 11.2855 16.1532C10.6971 16.1615 10.1213 16.0697 9.57882 15.8444C9.07809 15.6399 8.58154 15.4271 8.0975 15.1851C7.05848 14.6718 5.99443 14.6385 4.897 14.9389C4.44634 15.0599 4.25439 15.3186 4.25439 15.7818C4.25439 16.8834 4.25439 17.9892 4.25439 19.0908C4.25439 19.5247 4.25439 19.9545 4.25439 20.4135ZM2.99422 20.401C2.99422 19.1868 2.99422 17.9892 2.99422 16.7874C2.53522 16.7874 2.09291 16.7874 1.63808 16.7874C1.63808 17.9975 1.63808 19.1951 1.63808 20.401C2.09291 20.401 2.53522 20.401 2.99422 20.401Z" fill="#515251"/>
<g clip-path="url(#clip1_5_242)">
<path d="M12.7685 5.00514C12.7685 4.84411 12.7724 4.68268 12.7685 4.52164C12.7653 4.43643 12.7974 4.41337 12.8783 4.41455C13.1077 4.41885 13.3376 4.42041 13.5666 4.41455C13.6643 4.41181 13.6921 4.44464 13.6905 4.53962C13.6854 4.84215 13.6932 5.14507 13.6866 5.44799C13.6842 5.559 13.7104 5.60434 13.8312 5.59965C14.0947 5.5934 14.095 5.59965 14.095 5.87091C14.095 6.03194 14.0915 6.19337 14.095 6.35441C14.0974 6.43258 14.0767 6.46385 13.9903 6.46541C13.6878 6.47167 13.6878 6.47558 13.6878 6.78553C13.6878 6.9368 13.6917 7.08845 13.6878 7.23972C13.685 7.32258 13.7132 7.3476 13.796 7.35033C14.095 7.35893 14.095 7.36206 14.095 7.65872C14.095 7.80999 14.0915 7.96164 14.095 8.11291C14.0978 8.19499 14.0704 8.2204 13.9868 8.22196C13.6874 8.22821 13.6878 8.23173 13.6878 8.53035C13.6878 8.75979 13.6842 8.98962 13.6878 9.21867C13.6878 9.30935 13.6577 9.33592 13.5705 9.33397C13.3168 9.32889 13.0624 9.3285 12.8087 9.33397C12.773 9.33743 12.7371 9.32988 12.7058 9.31235C12.6745 9.29481 12.6493 9.26812 12.6336 9.23586C12.4522 8.9349 12.2631 8.63862 12.0833 8.33688C12.0332 8.25245 11.9797 8.21453 11.8765 8.21649C11.5298 8.22391 11.1831 8.22235 10.8364 8.21649C10.7403 8.21649 10.7121 8.24424 10.7141 8.33961C10.7199 8.62768 10.7117 8.91575 10.7184 9.20381C10.7207 9.30856 10.6867 9.33671 10.5855 9.33319C10.3658 9.32615 10.1457 9.32459 9.92647 9.33319C9.81117 9.33827 9.78733 9.2941 9.78928 9.19052C9.79554 8.91223 9.78655 8.63393 9.79358 8.35564C9.79632 8.24854 9.76935 8.21219 9.65639 8.21492C9.39646 8.22118 9.39607 8.21493 9.39607 7.95813C9.39607 7.78732 9.3992 7.61612 9.39607 7.44531C9.39607 7.36714 9.42304 7.34721 9.4977 7.34447C9.7928 7.33274 9.7928 7.33001 9.7928 7.03178C9.7928 6.88051 9.7885 6.72886 9.7928 6.57759C9.79593 6.49004 9.76896 6.46033 9.67789 6.46033C9.39607 6.4576 9.39607 6.45369 9.39607 6.1664C9.39607 6.01514 9.40076 5.86348 9.39607 5.71222C9.39216 5.6231 9.4203 5.59496 9.51099 5.59496C9.79358 5.59066 9.79358 5.58636 9.79358 5.29634C9.79358 5.04228 9.79632 4.78821 9.79358 4.53454C9.79358 4.44894 9.81469 4.41259 9.9085 4.41494C10.1575 4.4208 10.4065 4.42002 10.6554 4.41494C10.689 4.41225 10.7225 4.41988 10.7515 4.43678C10.7806 4.45369 10.8038 4.47907 10.818 4.50953C11.0135 4.83551 11.2175 5.15758 11.4129 5.48434C11.4606 5.56252 11.511 5.6016 11.6084 5.6016C11.9551 5.59535 12.3018 5.59613 12.6485 5.6016C12.7438 5.6016 12.7771 5.57385 12.7728 5.47692C12.7653 5.32057 12.7728 5.16423 12.7728 5.00788L12.7685 5.00514ZM12.0121 6.46307C12.1939 6.75974 12.3604 7.03295 12.5292 7.30499C12.5758 7.37965 12.6535 7.34642 12.7173 7.34408C12.7954 7.34095 12.7665 7.27216 12.7669 7.22955C12.7696 7.00989 12.7669 6.79022 12.7669 6.57056C12.7669 6.5174 12.7771 6.46111 12.6915 6.46229C12.4753 6.46502 12.2576 6.46307 12.0121 6.46307V6.46307ZM11.4677 7.34721L10.9501 6.50841C10.9032 6.43219 10.827 6.46346 10.7641 6.4662C10.6859 6.4701 10.718 6.53929 10.7176 6.58072C10.7145 6.79999 10.7176 7.01927 10.7176 7.23854C10.7176 7.29014 10.7035 7.34916 10.7907 7.34799C11.0064 7.34564 11.2234 7.34721 11.4677 7.34721V7.34721Z" fill="#515251"/>
</g>
</g>
<defs>
<clipPath id="clip0_5_242">
<rect width="20" height="21.3228" fill="white" transform="translate(0.37793 0.338623)"/>
</clipPath>
<clipPath id="clip1_5_242">
<rect width="4.70054" height="4.92138" fill="white" transform="translate(9.39319 4.41386)"/>
</clipPath>
</defs>
</svg>
