<svg width="109" height="126" viewBox="0 0 109 126" fill="none" xmlns="http://www.w3.org/2000/svg">
<circle cx="3.81087" cy="3.46712" r="3.26692" fill="#EA4E4B"/>
<circle cx="24.0658" cy="3.46733" r="3.26692" fill="#EA4E4B"/>
<circle cx="44.3207" cy="3.46733" r="3.26692" fill="#EA4E4B"/>
<circle cx="64.5756" cy="3.46733" r="3.26692" fill="#EA4E4B"/>
<circle cx="3.81087" cy="20.4553" r="3.26692" fill="#EA4E4B"/>
<circle cx="24.0658" cy="20.4552" r="3.26692" fill="#EA4E4B"/>
<circle cx="44.3207" cy="20.4552" r="3.26692" fill="#EA4E4B"/>
<circle cx="64.5756" cy="20.4552" r="3.26692" fill="#EA4E4B"/>
<circle cx="3.81087" cy="37.4433" r="3.26692" fill="#EA4E4B"/>
<circle cx="24.0658" cy="37.4434" r="3.26692" fill="#EA4E4B"/>
<circle cx="44.3207" cy="37.4434" r="3.26692" fill="#EA4E4B"/>
<circle cx="64.5756" cy="37.4434" r="3.26692" fill="#EA4E4B"/>
<circle cx="3.81087" cy="54.4313" r="3.26692" fill="#EA4E4B"/>
<circle cx="24.0658" cy="54.4311" r="3.26692" fill="#EA4E4B"/>
<circle cx="44.3207" cy="54.4311" r="3.26692" fill="#EA4E4B"/>
<circle cx="64.5756" cy="54.4311" r="3.26692" fill="#EA4E4B"/>
<circle cx="3.81087" cy="71.4193" r="3.26692" fill="#EA4E4B"/>
<circle cx="24.0658" cy="71.4193" r="3.26692" fill="#EA4E4B"/>
<circle cx="44.3207" cy="71.4193" r="3.26692" fill="#EA4E4B"/>
<circle cx="64.5756" cy="71.4193" r="3.26692" fill="#EA4E4B"/>
<circle cx="3.81087" cy="88.4073" r="3.26692" fill="#EA4E4B"/>
<circle cx="24.0658" cy="88.4075" r="3.26692" fill="#EA4E4B"/>
<circle cx="44.3207" cy="88.4075" r="3.26692" fill="#EA4E4B"/>
<circle cx="64.5756" cy="88.4075" r="3.26692" fill="#EA4E4B"/>
<circle cx="3.81087" cy="105.395" r="3.26692" fill="#EA4E4B"/>
<circle cx="24.0658" cy="105.395" r="3.26692" fill="#EA4E4B"/>
<circle cx="44.3207" cy="105.395" r="3.26692" fill="#EA4E4B"/>
<circle cx="64.5756" cy="105.395" r="3.26692" fill="#EA4E4B"/>
<circle cx="3.81087" cy="122.383" r="3.26692" fill="#EA4E4B"/>
<circle cx="24.0658" cy="122.383" r="3.26692" fill="#EA4E4B"/>
<circle cx="44.3207" cy="122.383" r="3.26692" fill="#EA4E4B"/>
<circle cx="64.5756" cy="122.383" r="3.26692" fill="#EA4E4B"/>
</svg>
