<svg width="122" height="32" viewBox="0 0 122 32" fill="none" xmlns="http://www.w3.org/2000/svg">
	<path d="M34.4103 17.7933C34.3639 20.1996 32.8117 21.7964 30.2625 21.7964C28.6406 21.7964 27.6439 21.0097 27.6439 19.7599C27.6439 18.2794 28.8025 17.4462 30.8416 17.4462H34.4102V17.7933H34.4103ZM40.3424 21.0097C39.5777 21.0097 39.2069 20.8243 39.2069 19.8988V13.6284C39.2069 9.37088 36.3339 7.17313 31.375 7.17313C26.6709 7.17313 23.4966 9.4404 23.1491 12.8879H27.8528C28.0613 11.5924 29.3359 10.7364 31.2358 10.7364C33.2749 10.7364 34.4104 11.7545 34.4104 13.3509V14.2071H30.8882C25.5585 14.2071 22.7319 16.3358 22.7319 20.1068C22.7319 23.4854 25.4893 25.3129 29.3359 25.3129C32.0933 25.3129 33.9008 24.1795 35.1287 22.2129C35.1055 23.902 35.8935 25.1049 38.4193 25.1049H40.8984V21.0097H40.3425H40.3424Z" fill="#292A29" />
	<path d="M42.7984 11.4767H51.2791L42.4045 21.7963V25.1052H58.2543V21.0098H48.9621L57.8371 10.69V7.38145H42.7984V11.4767Z" fill="#292A29" />
	<path d="M59.6911 25.1049H64.6035V7.38121H59.6911V25.1049Z" fill="#292A29" />
	<path d="M62.1469 5.48413C63.7229 5.48413 64.9739 4.30392 64.9739 2.75386C64.9739 1.18028 63.7228 6.67572e-05 62.1469 6.67572e-05C60.5482 6.67572e-05 59.3199 1.18028 59.3199 2.75386C59.3199 4.30392 60.5482 5.48413 62.1469 5.48413Z" fill="#292A29" />
	<path fill-rule="evenodd" clip-rule="evenodd" d="M75.7029 21.3567C73.0378 21.3567 71.3695 19.2511 71.3695 16.197C71.3695 13.212 73.0378 11.1296 75.7029 11.1296C78.3443 11.1296 80.0822 13.212 80.0822 16.197C80.0822 19.2511 78.3442 21.3567 75.7029 21.3567ZM76.7683 7.17324C74.243 7.17324 72.4586 8.30699 71.3003 9.83388V7.38122H66.5725V31.9999H71.4386V22.8608C72.5743 24.3181 74.3357 25.313 76.792 25.313C81.5648 25.313 85.0179 21.7964 85.0179 16.2665C85.0179 10.6899 81.5649 7.15007 76.7684 7.17324H76.7683Z" fill="#292A29" />
	<path d="M97.3684 17.7933C97.322 20.1996 95.7693 21.7964 93.2205 21.7964C91.5982 21.7964 90.6018 21.0097 90.6018 19.7599C90.6018 18.2794 91.7606 17.4462 93.7997 17.4462H97.3683V17.7933H97.3684ZM103.3 21.0097C102.536 21.0097 102.165 20.8243 102.165 19.8988V13.6284C102.165 9.37088 99.2919 7.17313 94.3094 7.17313C89.629 7.17313 86.4547 9.4404 86.1067 12.8879H90.7876C90.996 11.5924 92.2935 10.7364 94.1706 10.7364C96.2098 10.7364 97.3685 11.7545 97.3685 13.3509V14.2071H93.8462C88.5165 14.2071 85.69 16.3358 85.69 20.1068C85.69 23.4854 88.447 25.3129 92.2935 25.3129C95.0514 25.3129 96.8352 24.1795 98.0868 22.2129C98.04 23.902 98.8516 25.1049 101.354 25.1049H103.856V21.0097H103.3Z" fill="#292A29" />
	<path d="M109.904 25.1974L109.464 26.3776C108.977 27.5805 108.56 27.9045 107.309 27.9045H104.621V31.9998H109.348C112.105 31.9998 113.009 30.5426 114.121 27.6269L122 7.38156H116.786L112.569 19.9914L108.259 7.38156H103.069L109.904 25.1974H109.904Z" fill="#292A29" />
	<path fill-rule="evenodd" clip-rule="evenodd" d="M21.1559 20.2693C15.0614 21.6344 6.62708 15.7343 0 17.7934V22.5597C6.62708 20.5004 15.0614 26.4007 21.1559 25.0355V20.2693Z" fill="#292A29" />
	<path fill-rule="evenodd" clip-rule="evenodd" d="M21.1559 12.3791C15.0614 13.7441 6.62708 7.844 0 9.90317V14.6699C6.62708 12.6103 15.0614 18.5104 21.1559 17.1685V12.379V12.3791Z" fill="#292A29" />
	<path fill-rule="evenodd" clip-rule="evenodd" d="M21.1559 4.55861C15.0614 5.90057 6.62708 0.000309119 0 2.05972V6.84905C6.62708 4.78988 15.0614 10.6901 21.1559 9.325V4.55872V4.55861Z" fill="#292A29" />
</svg>
